# xmcd CD database file
#
# Track frame offsets:
#	150
#	36308
#	57483
#	74595
#	91084
#	112101
#	133981
#	161209
#	184278
#	196432
#	207795
#
# Disc length: 3181 seconds
#
# Revision: 0
# Processed by: cddbd v1.5.2PL0 Copyright (c) Steve Scherf et al.
# Submitted via: CDex 1.51
#
DISCID=af0c6b0b
DTITLE=Miles, Reggie - 51 Highway Blues
DYEAR=2006
DGENRE=Blues
TTITLE0=51 Hwy Blues
TTITLE1=Back Door Man
TTITLE2=Blues In My Lap
TTITLE3=Broke Down Engine
TTITLE4=Last Dime Blues
TTITLE5=Blues About Midnight
TTITLE6=Mourning Blues
TTITLE7=Motherless Children
TTITLE8=What Got Wrong?
TTITLE9=Stray Dog Blues
TTITLE10=Katrina Blues
EXTD=YEAR: 2006
EXTT0=
EXTT1=
EXTT2=
EXTT3=
EXTT4=
EXTT5=
EXTT6=
EXTT7=
EXTT8=
EXTT9=
EXTT10=
PLAYORDER=
